<?xml version="1.0" encoding="UTF-8"?>
<svg version="1.1" viewBox="0 0 960 960" width="1280" height="1280" xmlns="http://www.w3.org/2000/svg">
<path transform="translate(414,324)" d="m0 0h98l20 1 26 3 26 4 25 5 17 5 13 6 9 6 6 7 1 2 3 35 16 160 10 105 4 43 2 21 2 14v9l-5 5-12 9-18 11-23 12-24 9-13 4-28 6-36 5-15 1h-17l-11-20-11-23-14-27-55-110-10-19-10-21-10-18-10-21-10-19-8-16-8-15-11-23-17-33-23-46-8-15-10-20 1-7 7-7 15-8 18-6 28-6 17-3 36-4zm133 161-13 3-1 1-6 77-6 87 10-2 6-3 2-7 6-84 5-68 1-4zm22 41-1 4 4 8 1 1h6l1-2-6-2-1-8zm7 4 1 2zm3 0v2h2v-2zm-96 18-9 6-16 12-13 9-12 9-12 8-2 5 4 13 2 2 69 7 9 1 1-4-2-5-2-7-49-5h-11l5-5 18-13 16-11 9-6 1-3-3-13z" fill="#F99134"/>
<path transform="translate(615,160)" d="m0 0 26 1 15 3 10 4 5 5 1 3v7l-4 7 2 10 3 37 6 64 6 68 3 33 3 29 2 26 3 31 3 30 7 74 11 125 2 19 1 17v13l-5 5-10 7-15 10-25 14-26 12-24 9-24 7-24 5-31 4h-40l-14-3-4-5-15-28-8-16-24-46-12-24-12-22-12-23-20-39-17-33-13-24-11-22-10-19-15-29-10-19-14-27-10-19-10-20-12-22-17-33-20-39-3-5v-2l-4-2-8-7-1-2v-7l6-10 9-9 17-12 28-16 19-9 28-12 28-11 47-16 35-11 46-12 50-11 39-7 32-4zm-6 17-38 3-32 5-37 7-39 9-35 9-42 13-50 17-22 9-28 12-21 10-21 12-19 13-7 6 2 2 16 3h35l32-3 33-5 36-7 38-9 35-9 30-9 36-12 29-10 27-11 24-11 23-11 20-12 16-12 3-5-3-2-23-2zm43 28-18 11-16 9-16 8-24 11-37 15-23 8-35 12-41 12-64 16-42 8-34 5-20 2-19 1h-28l-2 2 18 34 14 27 19 37 10 19 7 14 12 22 11 22 30 57 18 35 10 19 10 20 12 22 36 70 16 31 12 22 19 38 4 6 8 2h31l25-2 27-5 25-7 25-9 26-12 20-11 22-14 5-5-2-10-3-36-5-56-3-37-2-15-2-31-2-11-2-29-2-16-2-28-1-3-3-38-1-4-3-39-2-20-5-54-5-57-6-62-1-6z" fill="#FCFBFB"/>
<path transform="translate(414,324)" d="m0 0h98l20 1 26 3 26 4 25 5 17 5 13 6 9 6 5 5 1 13-13 9-9 4-9 3-15 4-23 5-10 2-35 4-14 1-60 2-53-2-20-1-7-1-33-4-32-6-15-4-7-3-13-5-5-2-6-12 1-7 7-7 15-8 18-6 28-6 17-3 36-4z" fill="#FD7B07"/>
<path transform="translate(572,526)" d="m0 0h10l59 6 7 1 4 14-1 5-10 7-18 13-19 14-16 11-3-1-2-6v-8l11-9 16-11 11-8 8-6h2l-1-2-35-3-20-3 4-2-5-3-2-6zm4 4 1 2zm3 0v2h2v-2z" fill="#421E0E"/>
<path transform="translate(660,793)" d="m0 0 3 2-7 6-10 4-6 2-2 2-7 2-6 3-2 2-5 1-4 1-10 1-1 2-9 5-5 2v-2l-4-1-2-10 7-3 20-6 7 1 3 1 3-1h6l1-3 10-1v-2l9-5z" fill="#EDDDD0"/>
<path transform="translate(677,459)" d="m0 0 4 4 2 5v6l-3 1v10h-2l-1-11z" fill="#F0E2D7"/>
<path transform="translate(601,809)" d="m0 0h2v3l-6 2-6 1-1-3z" fill="#FBF8F7"/>
</svg>
